<svg width="91" height="91" viewBox="0 0 91 91" fill="none" xmlns="http://www.w3.org/2000/svg">
<rect width="91" height="91" fill="#222B56"/>
<path d="M65.5903 36.4252C65.1634 35.9414 64.6383 35.5539 64.0501 35.2886C63.462 35.0232 62.824 34.8861 62.1788 34.8862H51.565V31.8537C51.565 29.843 50.7663 27.9147 49.3445 26.493C47.9227 25.0712 45.9944 24.2725 43.9838 24.2725C43.7021 24.2723 43.4259 24.3505 43.1862 24.4985C42.9465 24.6465 42.7528 24.8583 42.6267 25.1102L35.4662 39.435H27.305C26.5007 39.435 25.7294 39.7545 25.1607 40.3232C24.592 40.8919 24.2725 41.6632 24.2725 42.4675V59.1462C24.2725 59.9505 24.592 60.7218 25.1607 61.2905C25.7294 61.8592 26.5007 62.1787 27.305 62.1787H59.9044C61.0126 62.1791 62.0828 61.7749 62.9141 61.042C63.7453 60.3092 64.2805 59.2981 64.419 58.1986L66.6934 40.0036C66.774 39.363 66.7173 38.7126 66.5271 38.0956C66.3369 37.4786 66.0176 36.9092 65.5903 36.4252ZM27.305 42.4675H34.8863V59.1462H27.305V42.4675ZM63.6836 39.6245L61.4093 57.8195C61.3631 58.186 61.1847 58.523 60.9076 58.7673C60.6305 59.0116 60.2738 59.1463 59.9044 59.1462H37.9188V41.3094L44.8764 27.3921C45.9077 27.5985 46.8355 28.1559 47.5021 28.9693C48.1687 29.7828 48.5328 30.802 48.5325 31.8537V36.4025C48.5325 36.8046 48.6923 37.1903 48.9766 37.4746C49.261 37.759 49.6466 37.9187 50.0488 37.9187H62.1788C62.3939 37.9186 62.6066 37.9644 62.8028 38.0528C62.9989 38.1413 63.1739 38.2705 63.3163 38.4319C63.4586 38.5932 63.565 38.783 63.6283 38.9886C63.6917 39.1943 63.7105 39.411 63.6836 39.6245Z" fill="white"/>
</svg>
