<svg width="91" height="91" viewBox="0 0 91 91" fill="none" xmlns="http://www.w3.org/2000/svg">
<rect width="91" height="91" fill="#222B56"/>
<path d="M45.5 36.4031C43.7008 36.4031 41.942 36.9366 40.446 37.9362C38.95 38.9358 37.7841 40.3565 37.0955 42.0188C36.407 43.681 36.2269 45.5101 36.5779 47.2747C36.9289 49.0394 37.7953 50.6603 39.0675 51.9325C40.3397 53.2047 41.9606 54.0711 43.7253 54.4222C45.4899 54.7732 47.319 54.593 48.9812 53.9045C50.6435 53.216 52.0642 52.05 53.0638 50.554C54.0634 49.058 54.5969 47.2992 54.5969 45.5C54.5944 43.0881 53.6352 40.7757 51.9297 39.0703C50.2243 37.3648 47.9119 36.4056 45.5 36.4031ZM45.5 51.5646C44.3005 51.5646 43.128 51.2089 42.1307 50.5426C41.1334 49.8762 40.356 48.929 39.897 47.8208C39.438 46.7127 39.3179 45.4933 39.5519 44.3169C39.7859 43.1404 40.3635 42.0598 41.2117 41.2117C42.0598 40.3635 43.1404 39.7859 44.3169 39.5519C45.4933 39.3179 46.7127 39.438 47.8208 39.897C48.929 40.356 49.8762 41.1334 50.5426 42.1307C51.2089 43.128 51.5646 44.3005 51.5646 45.5C51.5646 47.1084 50.9257 48.651 49.7883 49.7883C48.651 50.9257 47.1084 51.5646 45.5 51.5646ZM62.1777 45.9094C62.1853 45.6365 62.1853 45.3636 62.1777 45.0906L65.0053 41.558C65.1536 41.3725 65.2562 41.1548 65.305 40.9224C65.3537 40.69 65.3471 40.4494 65.2858 40.22C64.8223 38.4776 64.1289 36.8046 63.2239 35.2451C63.1054 35.041 62.9409 34.8674 62.7435 34.7381C62.546 34.6088 62.3212 34.5274 62.0868 34.5003L57.5913 34C57.4044 33.8029 57.2148 33.6133 57.0228 33.4314L56.4921 28.9246C56.4648 28.69 56.3831 28.465 56.2535 28.2676C56.1238 28.0702 55.9499 27.9058 55.7454 27.7875C54.1854 26.8842 52.5125 26.1914 50.7705 25.7274C50.541 25.6664 50.3003 25.6602 50.0679 25.7092C49.8355 25.7583 49.6178 25.8612 49.4325 26.0098L45.9094 28.8223C45.6365 28.8223 45.3635 28.8223 45.0906 28.8223L41.558 26.0003C41.3725 25.8521 41.1548 25.7495 40.9224 25.7007C40.69 25.652 40.4494 25.6586 40.22 25.7199C38.4778 26.1842 36.8049 26.8776 35.2451 27.7818C35.041 27.9003 34.8674 28.0648 34.7381 28.2622C34.6088 28.4596 34.5274 28.6845 34.5003 28.9189L34 33.4219C33.8029 33.6102 33.6133 33.7997 33.4314 33.9905L28.9246 34.5079C28.69 34.5352 28.465 34.6169 28.2676 34.7465C28.0702 34.8762 27.9058 35.0502 27.7875 35.2546C26.8842 36.8146 26.1914 38.4875 25.7274 40.2295C25.6664 40.459 25.6602 40.6997 25.7092 40.9321C25.7583 41.1645 25.8612 41.3822 26.0098 41.5675L28.8223 45.0906C28.8223 45.3636 28.8223 45.6365 28.8223 45.9094L26.0003 49.442C25.8521 49.6275 25.7494 49.8452 25.7007 50.0776C25.652 50.31 25.6586 50.5506 25.7198 50.78C26.1834 52.5225 26.8768 54.1954 27.7818 55.7549C27.9003 55.959 28.0648 56.1326 28.2622 56.2619C28.4596 56.3912 28.6845 56.4726 28.9189 56.4997L33.4143 57.0001C33.6026 57.1972 33.7921 57.3867 33.9829 57.5686L34.5079 62.0754C34.5352 62.31 34.6169 62.535 34.7465 62.7324C34.8762 62.9298 35.0501 63.0942 35.2546 63.2125C36.8146 64.1159 38.4875 64.8086 40.2295 65.2726C40.459 65.3336 40.6997 65.3399 40.9321 65.2908C41.1645 65.2418 41.3822 65.1388 41.5675 64.9902L45.0906 62.1777C45.3635 62.1853 45.6365 62.1853 45.9094 62.1777L49.442 65.0054C49.6275 65.1536 49.8452 65.2562 50.0776 65.305C50.31 65.3537 50.5506 65.3471 50.78 65.2858C52.5225 64.8223 54.1954 64.1289 55.7549 63.2239C55.959 63.1054 56.1326 62.9409 56.2619 62.7435C56.3912 62.5461 56.4726 62.3212 56.4997 62.0868L57 57.5914C57.1971 57.4044 57.3867 57.2148 57.5686 57.0228L62.0754 56.4921C62.31 56.4648 62.535 56.3831 62.7324 56.2535C62.9298 56.1238 63.0942 55.9499 63.2125 55.7454C64.1158 54.1854 64.8086 52.5125 65.2726 50.7705C65.3336 50.541 65.3398 50.3003 65.2908 50.0679C65.2417 49.8355 65.1388 49.6179 64.9902 49.4325L62.1777 45.9094ZM59.1265 44.6775C59.1587 45.2254 59.1587 45.7747 59.1265 46.3225C59.1039 46.6976 59.2214 47.0677 59.4562 47.3611L62.1455 50.7213C61.8369 51.702 61.4418 52.6533 60.9648 53.5641L56.6817 54.0492C56.3086 54.0906 55.9643 54.2689 55.7151 54.5496C55.3503 54.9599 54.9617 55.3484 54.5515 55.7132C54.2708 55.9624 54.0925 56.3068 54.0511 56.6798L53.5754 60.9591C52.6648 61.4363 51.7134 61.8315 50.7326 62.1398L47.3706 59.4505C47.1015 59.2356 46.7673 59.1186 46.423 59.1189H46.332C45.7841 59.1511 45.2348 59.1511 44.687 59.1189C44.3119 59.0963 43.9418 59.2138 43.6484 59.4486L40.2787 62.1398C39.298 61.8312 38.3467 61.4361 37.4359 60.9591L36.9508 56.6817C36.9094 56.3087 36.7311 55.9643 36.4504 55.7151C36.0401 55.3503 35.6516 54.9618 35.2868 54.5515C35.0376 54.2708 34.6932 54.0925 34.3202 54.0511L30.0409 53.5735C29.5637 52.6629 29.1685 51.7115 28.8602 50.7307L31.5495 47.3687C31.7843 47.0753 31.9018 46.7052 31.8792 46.3301C31.847 45.7822 31.847 45.2329 31.8792 44.6851C31.9018 44.31 31.7843 43.9399 31.5495 43.6465L28.8602 40.2787C29.1688 39.298 29.5639 38.3467 30.0409 37.436L34.3183 36.9508C34.6914 36.9094 35.0357 36.7311 35.2849 36.4505C35.6497 36.0402 36.0383 35.6516 36.4485 35.2868C36.7303 35.0375 36.9093 34.6923 36.9508 34.3184L37.4265 30.0409C38.3371 29.5637 39.2885 29.1685 40.2693 28.8602L43.6313 31.5495C43.9247 31.7843 44.2948 31.9018 44.6699 31.8792C45.2178 31.847 45.7671 31.847 46.3149 31.8792C46.69 31.9018 47.0601 31.7843 47.3535 31.5495L50.7213 28.8602C51.702 29.1688 52.6533 29.5639 53.5641 30.0409L54.0492 34.3184C54.0906 34.6914 54.2689 35.0357 54.5496 35.2849C54.9599 35.6497 55.3484 36.0383 55.7132 36.4486C55.9624 36.7292 56.3068 36.9075 56.6798 36.9489L60.9591 37.4246C61.4363 38.3352 61.8315 39.2866 62.1398 40.2674L59.4505 43.6294C59.2134 43.9253 59.0958 44.2992 59.1208 44.6775H59.1265Z" fill="white"/>
</svg>
