<svg width="91" height="91" viewBox="0 0 91 91" fill="none" xmlns="http://www.w3.org/2000/svg">
<rect width="91" height="91" fill="#222B56"/>
<path d="M69.76 23.9355V45.4992C69.76 46.2141 69.5774 46.8997 69.2525 47.4052C68.9275 47.9107 68.4868 48.1947 68.0272 48.1947C67.5676 48.1947 67.1269 47.9107 66.8019 47.4052C66.4769 46.8997 66.2944 46.2141 66.2944 45.4992V30.4417L48.4593 58.1882C48.2983 58.4388 48.1072 58.6376 47.8969 58.7733C47.6865 58.9089 47.461 58.9787 47.2333 58.9787C47.0056 58.9787 46.7801 58.9089 46.5697 58.7733C46.3594 58.6376 46.1683 58.4388 46.0073 58.1882L38.5692 46.6145L24.1998 68.9701C23.8746 69.4758 23.4336 69.76 22.9738 69.76C22.514 69.76 22.073 69.4758 21.7478 68.9701C21.4227 68.4643 21.24 67.7783 21.24 67.063C21.24 66.3477 21.4227 65.6618 21.7478 65.156L37.3432 40.8967C37.5042 40.6461 37.6953 40.4473 37.9056 40.3116C38.116 40.176 38.3415 40.1062 38.5692 40.1062C38.7969 40.1062 39.0224 40.176 39.2328 40.3116C39.4431 40.4473 39.6342 40.6461 39.7952 40.8967L47.2333 52.4704L63.8446 26.6309H54.1646C53.705 26.6309 53.2643 26.3469 52.9393 25.8414C52.6143 25.3359 52.4318 24.6503 52.4318 23.9355C52.4318 23.2206 52.6143 22.535 52.9393 22.0295C53.2643 21.524 53.705 21.24 54.1646 21.24H68.0272C68.4868 21.24 68.9275 21.524 69.2525 22.0295C69.5774 22.535 69.76 23.2206 69.76 23.9355Z" fill="white"/>
</svg>
