<svg width="139" height="27" viewBox="0 0 139 27" fill="none" xmlns="http://www.w3.org/2000/svg">
<rect width="139" height="26.8485" rx="13.4242" fill="#222B56"/>
<path d="M17.6488 16.4243C17.587 16.4243 17.5365 16.4047 17.4971 16.3653C17.4578 16.326 17.4382 16.2755 17.4382 16.2137V10.738C17.4382 10.6762 17.4578 10.6256 17.4971 10.5863C17.5365 10.547 17.587 10.5273 17.6488 10.5273H19.9402C20.6647 10.5273 21.2347 10.6958 21.6503 11.0328C22.0715 11.3642 22.2821 11.8359 22.2821 12.4481C22.2821 12.8468 22.1838 13.1838 21.9873 13.459C21.7963 13.7342 21.5436 13.942 21.2291 14.0824L22.3916 16.1547C22.4085 16.1884 22.4169 16.2193 22.4169 16.2474C22.4169 16.2923 22.3972 16.3345 22.3579 16.3738C22.3242 16.4075 22.2821 16.4243 22.2316 16.4243H21.1196C21.0129 16.4243 20.9342 16.399 20.8837 16.3485C20.8331 16.2923 20.7966 16.2418 20.7742 16.1969L19.8138 14.3435H18.9461V16.2137C18.9461 16.2755 18.9265 16.326 18.8871 16.3653C18.8478 16.4047 18.7973 16.4243 18.7355 16.4243H17.6488ZM18.9461 13.1557H19.9233C20.1873 13.1557 20.3839 13.0911 20.513 12.962C20.6478 12.8328 20.7152 12.6559 20.7152 12.4312C20.7152 12.2122 20.6506 12.0353 20.5215 11.9005C20.3979 11.7657 20.1985 11.6983 19.9233 11.6983H18.9461V13.1557ZM25.1343 16.5086C24.4716 16.5086 23.9437 16.3288 23.5506 15.9694C23.1574 15.61 22.9524 15.0764 22.9356 14.3688C22.9356 14.3295 22.9356 14.2789 22.9356 14.2172C22.9356 14.1554 22.9356 14.1076 22.9356 14.074C22.9524 13.6303 23.0507 13.2512 23.2304 12.9367C23.4158 12.6166 23.6685 12.3751 23.9886 12.2122C24.3144 12.0437 24.6934 11.9595 25.1259 11.9595C25.6201 11.9595 26.0273 12.0578 26.3474 12.2543C26.6731 12.4509 26.9174 12.7176 27.0803 13.0546C27.2432 13.3916 27.3246 13.7763 27.3246 14.2087V14.4109C27.3246 14.4727 27.3022 14.5232 27.2572 14.5626C27.2179 14.6019 27.1702 14.6215 27.114 14.6215H24.4183C24.4183 14.6271 24.4183 14.6356 24.4183 14.6468C24.4183 14.658 24.4183 14.6693 24.4183 14.6805C24.4239 14.8434 24.452 14.9922 24.5025 15.127C24.553 15.2618 24.6317 15.3685 24.7384 15.4471C24.8451 15.5257 24.9743 15.565 25.1259 15.565C25.2382 15.565 25.3309 15.5482 25.4039 15.5145C25.4825 15.4752 25.5471 15.4331 25.5976 15.3881C25.6482 15.3376 25.6875 15.2955 25.7156 15.2618C25.7661 15.2056 25.8054 15.1719 25.8335 15.1607C25.8672 15.1438 25.9178 15.1354 25.9852 15.1354H27.0298C27.0859 15.1354 27.1309 15.1523 27.1646 15.186C27.2039 15.214 27.2207 15.2562 27.2151 15.3123C27.2095 15.4078 27.1618 15.5229 27.0719 15.6577C26.982 15.7925 26.8501 15.9273 26.676 16.0621C26.5075 16.1912 26.2941 16.298 26.0357 16.3822C25.7774 16.4664 25.4769 16.5086 25.1343 16.5086ZM24.4183 13.7875H25.842V13.7707C25.842 13.591 25.8139 13.4337 25.7577 13.2989C25.7072 13.1641 25.6257 13.0602 25.5134 12.9872C25.4067 12.9142 25.2775 12.8777 25.1259 12.8777C24.9743 12.8777 24.8451 12.9142 24.7384 12.9872C24.6373 13.0602 24.5587 13.1641 24.5025 13.2989C24.4463 13.4337 24.4183 13.591 24.4183 13.7707V13.7875ZM31.1977 18.0249C31.1359 18.0249 31.0853 18.0053 31.046 17.966C31.0067 17.9266 30.9871 17.8761 30.9871 17.8143V15.9441C30.8579 16.1239 30.6894 16.2643 30.4816 16.3653C30.2738 16.4608 30.0323 16.5086 29.7571 16.5086C29.4819 16.5086 29.2348 16.4636 29.0158 16.3738C28.7968 16.2783 28.6114 16.1463 28.4598 15.9778C28.3081 15.8093 28.1902 15.6044 28.106 15.3629C28.0217 15.1214 27.974 14.849 27.9628 14.5457C27.9571 14.4334 27.9543 14.3295 27.9543 14.234C27.9543 14.1385 27.9571 14.0346 27.9628 13.9223C27.9796 13.6078 28.0301 13.3298 28.1144 13.0883C28.1986 12.8468 28.3166 12.6418 28.4682 12.4733C28.6198 12.3049 28.8024 12.1785 29.0158 12.0943C29.2348 12.0044 29.4819 11.9595 29.7571 11.9595C30.0716 11.9595 30.3356 12.0184 30.549 12.1364C30.7624 12.2487 30.9337 12.3919 31.0629 12.566V12.2543C31.0629 12.1925 31.0825 12.142 31.1218 12.1027C31.1668 12.0634 31.2173 12.0437 31.2735 12.0437H32.2254C32.2872 12.0437 32.3377 12.0634 32.3771 12.1027C32.4164 12.142 32.436 12.1925 32.436 12.2543V17.8143C32.436 17.8761 32.4164 17.9266 32.3771 17.966C32.3377 18.0053 32.2872 18.0249 32.2254 18.0249H31.1977ZM30.212 15.3797C30.3861 15.3797 30.5293 15.3432 30.6417 15.2702C30.754 15.1916 30.8382 15.0933 30.8944 14.9753C30.9506 14.8518 30.9814 14.7198 30.9871 14.5794C30.9983 14.4671 31.0039 14.3604 31.0039 14.2593C31.0039 14.1582 30.9983 14.0543 30.9871 13.9476C30.9814 13.796 30.9534 13.6555 30.9028 13.5264C30.8523 13.3972 30.7708 13.2933 30.6585 13.2147C30.5462 13.1304 30.3974 13.0883 30.212 13.0883C30.0267 13.0883 29.8779 13.1276 29.7655 13.2063C29.6588 13.2849 29.5802 13.3916 29.5297 13.5264C29.4847 13.6612 29.4567 13.81 29.4454 13.9729C29.4342 14.147 29.4342 14.3211 29.4454 14.4952C29.4567 14.658 29.4847 14.8069 29.5297 14.9416C29.5802 15.0764 29.6588 15.1831 29.7655 15.2618C29.8779 15.3404 30.0267 15.3797 30.212 15.3797ZM35.0379 16.5086C34.7178 16.5086 34.4314 16.4355 34.1787 16.2895C33.9316 16.1435 33.7378 15.9301 33.5974 15.6493C33.457 15.3629 33.3868 15.0147 33.3868 14.6047V12.2543C33.3868 12.1925 33.4064 12.142 33.4458 12.1027C33.4851 12.0634 33.5356 12.0437 33.5974 12.0437H34.6504C34.7122 12.0437 34.7627 12.0634 34.8021 12.1027C34.8414 12.142 34.861 12.1925 34.861 12.2543V14.5541C34.861 15.1045 35.1081 15.3797 35.6024 15.3797C35.8326 15.3797 36.0151 15.3095 36.1499 15.1691C36.2903 15.0231 36.3605 14.8181 36.3605 14.5541V12.2543C36.3605 12.1925 36.3802 12.142 36.4195 12.1027C36.4588 12.0634 36.5094 12.0437 36.5711 12.0437H37.6242C37.686 12.0437 37.7365 12.0634 37.7758 12.1027C37.8151 12.142 37.8348 12.1925 37.8348 12.2543V16.2137C37.8348 16.2755 37.8151 16.326 37.7758 16.3653C37.7365 16.4047 37.686 16.4243 37.6242 16.4243H36.647C36.5908 16.4243 36.5403 16.4047 36.4953 16.3653C36.456 16.326 36.4364 16.2755 36.4364 16.2137V15.8936C36.2903 16.0958 36.0994 16.2502 35.8635 16.3569C35.6332 16.458 35.3581 16.5086 35.0379 16.5086ZM40.8475 16.5086C40.1848 16.5086 39.6569 16.3288 39.2637 15.9694C38.8706 15.61 38.6656 15.0764 38.6488 14.3688C38.6488 14.3295 38.6488 14.2789 38.6488 14.2172C38.6488 14.1554 38.6488 14.1076 38.6488 14.074C38.6656 13.6303 38.7639 13.2512 38.9436 12.9367C39.129 12.6166 39.3817 12.3751 39.7018 12.2122C40.0275 12.0437 40.4066 11.9595 40.8391 11.9595C41.3333 11.9595 41.7405 12.0578 42.0606 12.2543C42.3863 12.4509 42.6306 12.7176 42.7935 13.0546C42.9564 13.3916 43.0378 13.7763 43.0378 14.2087V14.4109C43.0378 14.4727 43.0153 14.5232 42.9704 14.5626C42.9311 14.6019 42.8834 14.6215 42.8272 14.6215H40.1314C40.1314 14.6271 40.1314 14.6356 40.1314 14.6468C40.1314 14.658 40.1314 14.6693 40.1314 14.6805C40.1371 14.8434 40.1651 14.9922 40.2157 15.127C40.2662 15.2618 40.3449 15.3685 40.4516 15.4471C40.5583 15.5257 40.6874 15.565 40.8391 15.565C40.9514 15.565 41.0441 15.5482 41.1171 15.5145C41.1957 15.4752 41.2603 15.4331 41.3108 15.3881C41.3614 15.3376 41.4007 15.2955 41.4288 15.2618C41.4793 15.2056 41.5186 15.1719 41.5467 15.1607C41.5804 15.1438 41.631 15.1354 41.6984 15.1354H42.743C42.7991 15.1354 42.844 15.1523 42.8777 15.186C42.9171 15.214 42.9339 15.2562 42.9283 15.3123C42.9227 15.4078 42.8749 15.5229 42.7851 15.6577C42.6952 15.7925 42.5632 15.9273 42.3891 16.0621C42.2207 16.1912 42.0072 16.298 41.7489 16.3822C41.4906 16.4664 41.1901 16.5086 40.8475 16.5086ZM40.1314 13.7875H41.5551V13.7707C41.5551 13.591 41.5271 13.4337 41.4709 13.2989C41.4204 13.1641 41.3389 13.0602 41.2266 12.9872C41.1199 12.9142 40.9907 12.8777 40.8391 12.8777C40.6874 12.8777 40.5583 12.9142 40.4516 12.9872C40.3505 13.0602 40.2718 13.1641 40.2157 13.2989C40.1595 13.4337 40.1314 13.591 40.1314 13.7707V13.7875ZM45.6304 16.5086C45.2653 16.5086 44.9536 16.4692 44.6953 16.3906C44.4425 16.3064 44.2348 16.2053 44.0719 16.0873C43.9146 15.9694 43.7967 15.8487 43.7181 15.7251C43.6394 15.5959 43.5973 15.4864 43.5917 15.3966C43.5861 15.3348 43.6057 15.2842 43.6507 15.2449C43.6956 15.2 43.7433 15.1775 43.7939 15.1775H44.7542C44.7711 15.1775 44.7851 15.1803 44.7964 15.186C44.8076 15.1916 44.8244 15.2028 44.8469 15.2196C44.9199 15.259 44.9929 15.3095 45.0659 15.3713C45.139 15.4274 45.2232 15.478 45.3187 15.5229C45.4141 15.5679 45.5293 15.5903 45.6641 15.5903C45.8213 15.5903 45.9533 15.5594 46.06 15.4976C46.1667 15.4359 46.2201 15.3432 46.2201 15.2196C46.2201 15.1298 46.1948 15.0568 46.1442 15.0006C46.0937 14.9388 45.9898 14.8799 45.8325 14.8237C45.6809 14.7675 45.4507 14.7114 45.1418 14.6552C44.8497 14.5878 44.5942 14.5008 44.3752 14.3941C44.1561 14.2818 43.9876 14.1385 43.8697 13.9644C43.7518 13.7847 43.6928 13.5685 43.6928 13.3158C43.6928 13.0911 43.7658 12.8749 43.9118 12.6671C44.0578 12.4593 44.2713 12.2908 44.5521 12.1616C44.8329 12.0269 45.1783 11.9595 45.5882 11.9595C45.914 11.9595 46.1948 11.9988 46.4307 12.0774C46.6722 12.1504 46.8743 12.2459 47.0372 12.3638C47.2057 12.4818 47.3321 12.6025 47.4163 12.7261C47.5005 12.8496 47.5455 12.962 47.5511 13.063C47.5567 13.1192 47.5399 13.1698 47.5005 13.2147C47.4612 13.254 47.4163 13.2736 47.3658 13.2736H46.4896C46.4672 13.2736 46.4447 13.2708 46.4222 13.2652C46.3998 13.254 46.3801 13.2428 46.3633 13.2315C46.2959 13.1978 46.2285 13.1529 46.1611 13.0967C46.0937 13.0406 46.0151 12.99 45.9252 12.9451C45.8354 12.9002 45.723 12.8777 45.5882 12.8777C45.4366 12.8777 45.3187 12.9114 45.2344 12.9788C45.1502 13.0462 45.1081 13.1332 45.1081 13.24C45.1081 13.313 45.1305 13.3804 45.1755 13.4421C45.226 13.5039 45.3243 13.5601 45.4703 13.6106C45.6219 13.6612 45.855 13.7173 46.1695 13.7791C46.557 13.8409 46.8659 13.942 47.0962 14.0824C47.3264 14.2172 47.4893 14.3772 47.5848 14.5626C47.6803 14.7423 47.728 14.9332 47.728 15.1354C47.728 15.405 47.6466 15.6437 47.4837 15.8515C47.3264 16.0593 47.0906 16.2221 46.7761 16.3401C46.4616 16.4524 46.0797 16.5086 45.6304 16.5086ZM50.7001 16.4243C50.3407 16.4243 50.029 16.3682 49.765 16.2558C49.5067 16.1379 49.3073 15.9582 49.1669 15.7167C49.0265 15.4696 48.9563 15.1523 48.9563 14.7647V13.1473H48.2992C48.2374 13.1473 48.1841 13.1276 48.1391 13.0883C48.0998 13.049 48.0802 12.9985 48.0802 12.9367V12.2543C48.0802 12.1925 48.0998 12.142 48.1391 12.1027C48.1841 12.0634 48.2374 12.0437 48.2992 12.0437H48.9563V10.6537C48.9563 10.5919 48.976 10.5414 49.0153 10.5021C49.0602 10.4628 49.1107 10.4431 49.1669 10.4431H50.1441C50.2059 10.4431 50.2564 10.4628 50.2958 10.5021C50.3351 10.5414 50.3547 10.5919 50.3547 10.6537V12.0437H51.4078C51.4695 12.0437 51.5201 12.0634 51.5594 12.1027C51.5987 12.142 51.6184 12.1925 51.6184 12.2543V12.9367C51.6184 12.9985 51.5987 13.049 51.5594 13.0883C51.5201 13.1276 51.4695 13.1473 51.4078 13.1473H50.3547V14.6468C50.3547 14.8378 50.3912 14.9894 50.4642 15.1017C50.5372 15.214 50.6608 15.2702 50.8349 15.2702H51.4836C51.5453 15.2702 51.5959 15.2899 51.6352 15.3292C51.6745 15.3685 51.6942 15.419 51.6942 15.4808V16.2137C51.6942 16.2755 51.6745 16.326 51.6352 16.3653C51.5959 16.4047 51.5453 16.4243 51.4836 16.4243H50.7001ZM53.7269 16.4243C53.682 16.4243 53.6399 16.4075 53.6006 16.3738C53.5669 16.3345 53.55 16.2923 53.55 16.2474C53.55 16.2193 53.5528 16.1941 53.5584 16.1716L55.5381 10.7632C55.555 10.7014 55.5887 10.6481 55.6392 10.6032C55.6954 10.5526 55.7712 10.5273 55.8667 10.5273H57.1135C57.2089 10.5273 57.282 10.5526 57.3325 10.6032C57.3887 10.6481 57.4252 10.7014 57.442 10.7632L59.4133 16.1716C59.4245 16.1941 59.4301 16.2193 59.4301 16.2474C59.4301 16.2923 59.4105 16.3345 59.3712 16.3738C59.3375 16.4075 59.2953 16.4243 59.2448 16.4243H58.2086C58.1244 16.4243 58.0598 16.4047 58.0149 16.3653C57.9755 16.3204 57.9503 16.2811 57.939 16.2474L57.6105 15.3881H55.3612L55.0411 16.2474C55.0299 16.2811 55.0046 16.3204 54.9653 16.3653C54.926 16.4047 54.8586 16.4243 54.7631 16.4243H53.7269ZM55.7066 14.175H57.2735L56.4816 11.951L55.7066 14.175ZM65.4309 16.9719C65.341 16.9719 65.2708 16.9466 65.2203 16.8961C65.1754 16.8511 65.1389 16.8118 65.1108 16.7781L64.8243 16.399C64.6053 16.4721 64.3554 16.5086 64.0746 16.5086C63.5579 16.5086 63.1086 16.4243 62.7267 16.2558C62.3504 16.0873 62.0528 15.8346 61.8337 15.4976C61.6203 15.1551 61.5052 14.7282 61.4883 14.2172C61.4827 13.9757 61.4799 13.7342 61.4799 13.4927C61.4799 13.2512 61.4827 13.0069 61.4883 12.7598C61.5052 12.2543 61.6231 11.8303 61.8422 11.4877C62.0612 11.1395 62.3617 10.8784 62.7436 10.7043C63.1255 10.5302 63.5691 10.4431 64.0746 10.4431C64.5857 10.4431 65.0321 10.5302 65.414 10.7043C65.7959 10.8784 66.0964 11.1395 66.3154 11.4877C66.5345 11.8303 66.6524 12.2543 66.6693 12.7598C66.6805 13.0069 66.6861 13.2512 66.6861 13.4927C66.6861 13.7342 66.6805 13.9757 66.6693 14.2172C66.6356 14.9136 66.4334 15.4527 66.0627 15.8346L66.6777 16.7107C66.6833 16.7164 66.6889 16.7276 66.6945 16.7444C66.7001 16.7613 66.703 16.7781 66.703 16.795C66.7086 16.8399 66.6945 16.8792 66.6608 16.9129C66.6271 16.9522 66.585 16.9719 66.5345 16.9719H65.4309ZM64.0746 15.2955C64.3722 15.2955 64.6137 15.2056 64.7991 15.0259C64.99 14.8462 65.0911 14.5598 65.1023 14.1666C65.1136 13.9195 65.1192 13.6864 65.1192 13.4674C65.1192 13.2484 65.1136 13.0209 65.1023 12.785C65.0967 12.5211 65.049 12.3077 64.9591 12.1448C64.8693 11.9763 64.7485 11.8528 64.5969 11.7741C64.4453 11.6955 64.2712 11.6562 64.0746 11.6562C63.8836 11.6562 63.7123 11.6955 63.5607 11.7741C63.4091 11.8528 63.2883 11.9763 63.1985 12.1448C63.1086 12.3077 63.0609 12.5211 63.0553 12.785C63.0496 13.0209 63.0468 13.2484 63.0468 13.4674C63.0468 13.6864 63.0496 13.9195 63.0553 14.1666C63.0665 14.5598 63.1648 14.8462 63.3501 15.0259C63.5411 15.2056 63.7826 15.2955 64.0746 15.2955ZM69.1874 16.5086C68.8673 16.5086 68.5808 16.4355 68.3281 16.2895C68.081 16.1435 67.8872 15.9301 67.7468 15.6493C67.6064 15.3629 67.5362 15.0147 67.5362 14.6047V12.2543C67.5362 12.1925 67.5559 12.142 67.5952 12.1027C67.6345 12.0634 67.6851 12.0437 67.7468 12.0437H68.7999C68.8616 12.0437 68.9122 12.0634 68.9515 12.1027C68.9908 12.142 69.0105 12.1925 69.0105 12.2543V14.5541C69.0105 15.1045 69.2576 15.3797 69.7518 15.3797C69.9821 15.3797 70.1646 15.3095 70.2994 15.1691C70.4398 15.0231 70.51 14.8181 70.51 14.5541V12.2543C70.51 12.1925 70.5296 12.142 70.569 12.1027C70.6083 12.0634 70.6588 12.0437 70.7206 12.0437H71.7736C71.8354 12.0437 71.8859 12.0634 71.9253 12.1027C71.9646 12.142 71.9842 12.1925 71.9842 12.2543V16.2137C71.9842 16.2755 71.9646 16.326 71.9253 16.3653C71.8859 16.4047 71.8354 16.4243 71.7736 16.4243H70.7964C70.7403 16.4243 70.6897 16.4047 70.6448 16.3653C70.6055 16.326 70.5858 16.2755 70.5858 16.2137V15.8936C70.4398 16.0958 70.2488 16.2502 70.013 16.3569C69.7827 16.458 69.5075 16.5086 69.1874 16.5086ZM75.0475 16.5086C74.5757 16.5086 74.177 16.4327 73.8513 16.2811C73.5311 16.1295 73.284 15.9132 73.1099 15.6324C72.9414 15.346 72.846 15.0062 72.8235 14.6131C72.8179 14.5008 72.8151 14.3744 72.8151 14.234C72.8151 14.088 72.8179 13.9616 72.8235 13.8549C72.846 13.4562 72.947 13.1164 73.1268 12.8356C73.3065 12.5548 73.5564 12.3386 73.8765 12.1869C74.2023 12.0353 74.5926 11.9595 75.0475 11.9595C75.508 11.9595 75.8983 12.0353 76.2185 12.1869C76.5442 12.3386 76.7969 12.5548 76.9766 12.8356C77.1564 13.1164 77.2575 13.4562 77.2799 13.8549C77.2855 13.9616 77.2883 14.088 77.2883 14.234C77.2883 14.3744 77.2855 14.5008 77.2799 14.6131C77.2575 15.0062 77.1592 15.346 76.9851 15.6324C76.8166 15.9132 76.5695 16.1295 76.2437 16.2811C75.9236 16.4327 75.5249 16.5086 75.0475 16.5086ZM75.0475 15.4808C75.3002 15.4808 75.4827 15.405 75.5951 15.2533C75.713 15.1017 75.7804 14.8743 75.7973 14.571C75.8029 14.4867 75.8057 14.3744 75.8057 14.234C75.8057 14.0936 75.8029 13.9813 75.7973 13.897C75.7804 13.5994 75.713 13.3747 75.5951 13.2231C75.4827 13.0659 75.3002 12.9872 75.0475 12.9872C74.8004 12.9872 74.6179 13.0659 74.4999 13.2231C74.382 13.3747 74.3174 13.5994 74.3062 13.897C74.3005 13.9813 74.2977 14.0936 74.2977 14.234C74.2977 14.3744 74.3005 14.4867 74.3062 14.571C74.3174 14.8743 74.382 15.1017 74.4999 15.2533C74.6179 15.405 74.8004 15.4808 75.0475 15.4808ZM80.3413 16.4243C79.9818 16.4243 79.6701 16.3682 79.4062 16.2558C79.1478 16.1379 78.9485 15.9582 78.8081 15.7167C78.6677 15.4696 78.5975 15.1523 78.5975 14.7647V13.1473H77.9404C77.8786 13.1473 77.8252 13.1276 77.7803 13.0883C77.741 13.049 77.7213 12.9985 77.7213 12.9367V12.2543C77.7213 12.1925 77.741 12.142 77.7803 12.1027C77.8252 12.0634 77.8786 12.0437 77.9404 12.0437H78.5975V10.6537C78.5975 10.5919 78.6171 10.5414 78.6564 10.5021C78.7014 10.4628 78.7519 10.4431 78.8081 10.4431H79.7853C79.8471 10.4431 79.8976 10.4628 79.9369 10.5021C79.9762 10.5414 79.9959 10.5919 79.9959 10.6537V12.0437H81.0489C81.1107 12.0437 81.1612 12.0634 81.2005 12.1027C81.2399 12.142 81.2595 12.1925 81.2595 12.2543V12.9367C81.2595 12.9985 81.2399 13.049 81.2005 13.0883C81.1612 13.1276 81.1107 13.1473 81.0489 13.1473H79.9959V14.6468C79.9959 14.8378 80.0324 14.9894 80.1054 15.1017C80.1784 15.214 80.302 15.2702 80.4761 15.2702H81.1247C81.1865 15.2702 81.2371 15.2899 81.2764 15.3292C81.3157 15.3685 81.3353 15.419 81.3353 15.4808V16.2137C81.3353 16.2755 81.3157 16.326 81.2764 16.3653C81.2371 16.4047 81.1865 16.4243 81.1247 16.4243H80.3413ZM84.0547 16.5086C83.3919 16.5086 82.864 16.3288 82.4709 15.9694C82.0778 15.61 81.8728 15.0764 81.8559 14.3688C81.8559 14.3295 81.8559 14.2789 81.8559 14.2172C81.8559 14.1554 81.8559 14.1076 81.8559 14.074C81.8728 13.6303 81.9711 13.2512 82.1508 12.9367C82.3361 12.6166 82.5888 12.3751 82.909 12.2122C83.2347 12.0437 83.6138 11.9595 84.0462 11.9595C84.5405 11.9595 84.9476 12.0578 85.2677 12.2543C85.5935 12.4509 85.8378 12.7176 86.0007 13.0546C86.1635 13.3916 86.245 13.7763 86.245 14.2087V14.4109C86.245 14.4727 86.2225 14.5232 86.1776 14.5626C86.1382 14.6019 86.0905 14.6215 86.0344 14.6215H83.3386C83.3386 14.6271 83.3386 14.6356 83.3386 14.6468C83.3386 14.658 83.3386 14.6693 83.3386 14.6805C83.3442 14.8434 83.3723 14.9922 83.4228 15.127C83.4734 15.2618 83.552 15.3685 83.6587 15.4471C83.7654 15.5257 83.8946 15.565 84.0462 15.565C84.1586 15.565 84.2512 15.5482 84.3242 15.5145C84.4029 15.4752 84.4674 15.4331 84.518 15.3881C84.5685 15.3376 84.6078 15.2955 84.6359 15.2618C84.6865 15.2056 84.7258 15.1719 84.7539 15.1607C84.7876 15.1438 84.8381 15.1354 84.9055 15.1354H85.9501C86.0063 15.1354 86.0512 15.1523 86.0849 15.186C86.1242 15.214 86.1411 15.2562 86.1354 15.3123C86.1298 15.4078 86.0821 15.5229 85.9922 15.6577C85.9024 15.7925 85.7704 15.9273 85.5963 16.0621C85.4278 16.1912 85.2144 16.298 84.956 16.3822C84.6977 16.4664 84.3972 16.5086 84.0547 16.5086ZM83.3386 13.7875H84.7623V13.7707C84.7623 13.591 84.7342 13.4337 84.678 13.2989C84.6275 13.1641 84.5461 13.0602 84.4337 12.9872C84.327 12.9142 84.1979 12.8777 84.0462 12.8777C83.8946 12.8777 83.7654 12.9142 83.6587 12.9872C83.5576 13.0602 83.479 13.1641 83.4228 13.2989C83.3667 13.4337 83.3386 13.591 83.3386 13.7707V13.7875Z" fill="white"/>
<circle cx="120.747" cy="14.7422" r="10.5303" fill="#FFD600"/>
<path fill-rule="evenodd" clip-rule="evenodd" d="M116.927 9.1665C116.967 9.12564 117.016 9.09322 117.069 9.0711C117.123 9.04898 117.18 9.0376 117.237 9.0376C117.295 9.0376 117.352 9.04898 117.406 9.0711C117.459 9.09322 117.507 9.12564 117.548 9.1665L122.813 14.4317C122.854 14.4724 122.886 14.5208 122.909 14.5741C122.931 14.6274 122.942 14.6846 122.942 14.7423C122.942 14.8 122.931 14.8572 122.909 14.9105C122.886 14.9638 122.854 15.0122 122.813 15.0529L117.548 20.3181C117.466 20.4005 117.354 20.4468 117.237 20.4468C117.121 20.4468 117.009 20.4005 116.927 20.3181C116.844 20.2357 116.798 20.124 116.798 20.0074C116.798 19.8909 116.844 19.7792 116.927 19.6968L121.882 14.7423L116.927 9.78779C116.886 9.74703 116.853 9.69861 116.831 9.64531C116.809 9.592 116.798 9.53486 116.798 9.47714C116.798 9.41943 116.809 9.36229 116.831 9.30898C116.853 9.25568 116.886 9.20726 116.927 9.1665Z" fill="#222B56"/>
<path fill-rule="evenodd" clip-rule="evenodd" d="M120.437 9.1665C120.478 9.12564 120.526 9.09322 120.579 9.0711C120.633 9.04898 120.69 9.0376 120.747 9.0376C120.805 9.0376 120.862 9.04898 120.916 9.0711C120.969 9.09322 121.017 9.12564 121.058 9.1665L126.323 14.4317C126.364 14.4724 126.397 14.5208 126.419 14.5741C126.441 14.6274 126.452 14.6846 126.452 14.7423C126.452 14.8 126.441 14.8572 126.419 14.9105C126.397 14.9638 126.364 15.0122 126.323 15.0529L121.058 20.3181C120.976 20.4005 120.864 20.4468 120.747 20.4468C120.631 20.4468 120.519 20.4005 120.437 20.3181C120.354 20.2357 120.308 20.124 120.308 20.0074C120.308 19.8909 120.354 19.7792 120.437 19.6968L125.392 14.7423L120.437 9.78779C120.396 9.74703 120.364 9.69861 120.341 9.64531C120.319 9.592 120.308 9.53486 120.308 9.47714C120.308 9.41943 120.319 9.36229 120.341 9.30898C120.364 9.25568 120.396 9.20726 120.437 9.1665Z" fill="#222B56"/>
</svg>
