<svg width="91" height="91" viewBox="0 0 91 91" fill="none" xmlns="http://www.w3.org/2000/svg">
<rect width="91" height="91" fill="#222B56"/>
<path d="M54.5975 65.211C54.5975 65.6131 54.4378 65.9988 54.1534 66.2832C53.8691 66.5675 53.4834 66.7273 53.0813 66.7273H37.9188C37.5167 66.7273 37.131 66.5675 36.8466 66.2832C36.5623 65.9988 36.4025 65.6131 36.4025 65.211C36.4025 64.8089 36.5623 64.4232 36.8466 64.1389C37.131 63.8545 37.5167 63.6948 37.9188 63.6948H53.0813C53.4834 63.6948 53.8691 63.8545 54.1534 64.1389C54.4378 64.4232 54.5975 64.8089 54.5975 65.211ZM62.1788 40.951C62.1853 43.4787 61.6143 45.9744 60.5093 48.2478C59.4043 50.5212 57.7946 52.512 55.803 54.0685C55.4306 54.3539 55.1283 54.7207 54.9194 55.1409C54.7105 55.561 54.6004 56.0234 54.5975 56.4926V57.6298C54.5975 58.434 54.278 59.2054 53.7093 59.7741C53.1406 60.3428 52.3693 60.6623 51.565 60.6623H39.435C38.6308 60.6623 37.8594 60.3428 37.2907 59.7741C36.722 59.2054 36.4025 58.434 36.4025 57.6298V56.4926C36.4022 56.029 36.2956 55.5716 36.0909 55.1557C35.8862 54.7397 35.5889 54.3762 35.2218 54.0931C33.2353 52.5461 31.6268 50.5675 30.518 48.307C29.4091 46.0466 28.8289 43.5635 28.8213 41.0458C28.772 32.0108 36.0728 24.4902 45.0982 24.2723C47.3221 24.2187 49.5342 24.6105 51.6044 25.4247C53.6745 26.2388 55.5609 27.4589 57.1525 29.013C58.7441 30.5671 60.0087 32.4239 60.8719 34.4741C61.7351 36.5243 62.1794 38.7265 62.1788 40.951ZM59.1463 40.951C59.1468 39.1309 58.7832 37.329 58.0769 35.6515C57.3706 33.974 56.3358 32.4547 55.0335 31.1832C53.7312 29.9116 52.1877 28.9134 50.4938 28.2473C48.7999 27.5813 46.9899 27.2608 45.1703 27.3048C37.7785 27.4791 31.814 33.6332 31.8538 41.0249C31.8606 43.0844 32.3358 45.1153 33.2433 46.964C34.1509 48.8127 35.4672 50.4307 37.0924 51.6955C37.823 52.2635 38.4139 52.991 38.8199 53.8225C39.226 54.6539 39.4364 55.5673 39.435 56.4926V57.6298H43.9838V49.1596L38.3623 43.54C38.0778 43.2555 37.9179 42.8696 37.9179 42.4673C37.9179 42.0649 38.0778 41.679 38.3623 41.3945C38.6468 41.11 39.0327 40.9502 39.435 40.9502C39.8374 40.9502 40.2233 41.11 40.5078 41.3945L45.5 46.3887L50.4923 41.3945C50.6332 41.2536 50.8004 41.1419 50.9845 41.0657C51.1685 40.9894 51.3658 40.9502 51.565 40.9502C51.7643 40.9502 51.9615 40.9894 52.1456 41.0657C52.3297 41.1419 52.4969 41.2536 52.6378 41.3945C52.7787 41.5354 52.8904 41.7026 52.9667 41.8867C53.0429 42.0708 53.0821 42.268 53.0821 42.4673C53.0821 42.6665 53.0429 42.8638 52.9667 43.0478C52.8904 43.2319 52.7787 43.3991 52.6378 43.54L47.0163 49.1596V57.6298H51.565V56.4926C51.5667 55.5646 51.7806 54.6492 52.1902 53.8165C52.5998 52.9837 53.1944 52.2557 53.9285 51.688C55.5587 50.414 56.8762 48.7844 57.7805 46.9236C58.6848 45.0628 59.1519 43.0199 59.1463 40.951Z" fill="white"/>
</svg>
