<svg width="50" height="50" viewBox="0 0 50 50" fill="none" xmlns="http://www.w3.org/2000/svg">
<circle cx="25" cy="25" r="25" fill="#F0F3FF"/>
<path d="M37 25.5766C37 18.6305 31.4038 13 24.5016 13C17.5962 13.0016 12 18.6305 12 25.5781C12 31.8539 16.5713 37.0564 22.5456 38V29.212H19.3741V25.5781H22.5487V22.805C22.5487 19.6539 24.4156 17.9134 27.27 17.9134C28.6385 17.9134 30.0681 18.1587 30.0681 18.1587V21.2521H28.4917C26.9403 21.2521 26.456 22.2223 26.456 23.2175V25.5766H29.9212L29.3681 29.2105H26.4544V37.9984C32.4287 37.0548 37 31.8523 37 25.5766Z" fill="#222B56"/>
</svg>
