<svg width="23" height="23" viewBox="0 0 23 23" fill="none" xmlns="http://www.w3.org/2000/svg">
<g clip-path="url(#clip0_171_384)">
<path d="M11.6685 0.0407738C9.03272 0.0391021 6.47918 0.958531 4.44943 2.64009C2.41968 4.32164 1.04134 6.6596 0.552712 9.24973C0.0640881 11.8399 0.495907 14.5193 1.77351 16.8248C3.0511 19.1303 5.09416 20.9168 7.54942 21.8756C7.4505 20.9811 7.36007 19.6062 7.58757 18.6298C7.79388 17.7466 8.91304 13.01 8.91304 13.01C8.91304 13.01 8.57531 12.3331 8.57531 11.3326C8.57531 9.75989 9.48674 8.58704 10.6214 8.58704C11.5852 8.58704 12.0515 9.31054 12.0515 10.1796C12.0515 11.1489 11.434 12.5988 11.1146 13.9426C10.8489 15.0674 11.6798 15.9859 12.7891 15.9859C14.7985 15.9859 16.343 13.8663 16.343 10.8084C16.343 8.10236 14.3972 6.21025 11.6205 6.21025C8.40433 6.21025 6.51646 8.62237 6.51646 11.115C6.51646 12.0872 6.89093 13.1287 7.35724 13.6953C7.3974 13.738 7.4258 13.7904 7.43967 13.8474C7.45353 13.9043 7.4524 13.9639 7.43637 14.0203C7.35018 14.3764 7.15941 15.1451 7.12267 15.302C7.07321 15.5083 6.95875 15.5521 6.74397 15.4532C5.33089 14.7961 4.44914 12.7316 4.44914 11.0726C4.44914 7.50745 7.04071 4.23336 11.9186 4.23336C15.8399 4.23336 18.8879 7.02701 18.8879 10.7618C18.8879 14.6576 16.4306 17.7932 13.0223 17.7932C11.8763 17.7932 10.7995 17.1983 10.4307 16.4946L9.72697 19.1823C9.4712 20.1644 8.78162 21.3951 8.32096 22.1455C9.8753 22.6261 11.5151 22.7655 13.1282 22.5542C14.7414 22.343 16.29 21.786 17.6681 20.9213C19.0463 20.0567 20.2216 18.9048 21.1137 17.5442C22.0059 16.1837 22.5938 14.6466 22.8374 13.038C23.081 11.4294 22.9746 9.78721 22.5253 8.22353C22.076 6.65986 21.2945 5.21158 20.2341 3.97765C19.1738 2.74371 17.8595 1.75319 16.3813 1.07375C14.903 0.394311 13.2955 0.0419617 11.6685 0.0407738Z" fill="black"/>
</g>
<defs>
<clipPath id="clip0_171_384">
<rect width="22.6092" height="22.6092" fill="white" transform="translate(0.363922 0.0407715)"/>
</clipPath>
</defs>
</svg>
