<svg width="24" height="23" viewBox="0 0 24 23" fill="none" xmlns="http://www.w3.org/2000/svg">
<g clip-path="url(#clip0_171_387)">
<path d="M23.1913 11.4145C23.1913 5.13202 18.1296 0.0393066 11.8867 0.0393066C5.6409 0.0407197 0.579269 5.13202 0.579269 11.416C0.579269 17.0923 4.71392 21.7978 10.1175 22.6513V14.7028H7.24898V11.416H10.1203V8.90776C10.1203 6.05759 11.809 4.48342 14.3907 4.48342C15.6285 4.48342 16.9215 4.70528 16.9215 4.70528V7.50316H15.4957C14.0925 7.50316 13.6544 8.38068 13.6544 9.28081V11.4145H16.7886L16.2884 14.7014H13.653V22.6499C19.0566 21.7964 23.1913 17.0909 23.1913 11.4145Z" fill="black"/>
</g>
<defs>
<clipPath id="clip0_171_387">
<rect width="22.6092" height="22.6092" fill="white" transform="translate(0.582275 0.0407715)"/>
</clipPath>
</defs>
</svg>
