<svg width="50" height="50" viewBox="0 0 50 50" fill="none" xmlns="http://www.w3.org/2000/svg">
<circle cx="25" cy="25" r="25" fill="#F0F3FF"/>
<path d="M19.8531 38C29.2875 38 34.4484 28.3794 34.4484 20.051C34.4484 19.7817 34.4484 19.5087 34.4391 19.2395C35.4438 18.3443 36.311 17.236 37 15.9666C36.0614 16.4759 35.0668 16.8115 34.0484 16.9627C35.1211 16.1735 35.9246 14.9319 36.3094 13.4686C35.3015 14.2034 34.1985 14.7193 33.0484 14.9935C32.2753 13.9802 31.2522 13.3089 30.1376 13.0836C29.0231 12.8583 27.8793 13.0916 26.8833 13.7473C25.8874 14.4031 25.095 15.4447 24.6288 16.7109C24.1626 17.977 24.0487 19.397 24.3047 20.7509C22.2652 20.6251 20.27 19.973 18.4485 18.8371C16.627 17.7011 15.0198 16.1066 13.7313 14.157C13.0771 15.5475 12.8775 17.1923 13.1729 18.7573C13.4683 20.3223 14.2366 21.6904 15.3219 22.5835C14.5087 22.5495 13.7133 22.2808 13 21.7989V21.8855C13.0014 23.3421 13.4114 24.7534 14.1607 25.881C14.9101 27.0085 15.9527 27.783 17.1125 28.0736C16.6723 28.2229 16.2175 28.2973 15.7609 28.2947C15.439 28.2959 15.1178 28.2592 14.8016 28.1851C15.1294 29.439 15.7676 30.5353 16.6269 31.3205C17.4863 32.1057 18.5236 32.5404 19.5938 32.5638C17.7759 34.321 15.5303 35.274 13.2188 35.2694C12.8114 35.2715 12.4044 35.2426 12 35.1828C14.3461 37.0236 17.0708 38.0011 19.8531 38Z" fill="#222B56"/>
</svg>
