<svg width="50" height="50" viewBox="0 0 50 50" fill="none" xmlns="http://www.w3.org/2000/svg">
<circle cx="25" cy="25" r="25" fill="#F0F3FF"/>
<g clip-path="url(#clip0_103_509)">
<path d="M24.5 13C21.1078 13 20.6812 13.0156 19.3484 13.075C18.0156 13.1375 17.1078 13.3469 16.3125 13.6562C15.4783 13.97 14.7226 14.4622 14.0984 15.0984C13.4626 15.723 12.9705 16.4785 12.6562 17.3125C12.3469 18.1062 12.1359 19.0156 12.075 20.3437C12.0156 21.6797 12 22.1047 12 25.5016C12 28.8953 12.0156 29.3203 12.075 30.6531C12.1375 31.9844 12.3469 32.8922 12.6562 33.6875C12.9766 34.5094 13.4031 35.2062 14.0984 35.9016C14.7922 36.5969 15.4891 37.025 16.3109 37.3438C17.1078 37.6531 18.0141 37.8641 19.3453 37.925C20.6797 37.9844 21.1047 38 24.5 38C27.8953 38 28.3188 37.9844 29.6531 37.925C30.9828 37.8625 31.8938 37.6531 32.6891 37.3438C33.5228 37.0298 34.2778 36.5376 34.9016 35.9016C35.5969 35.2062 36.0234 34.5094 36.3438 33.6875C36.6516 32.8922 36.8625 31.9844 36.925 30.6531C36.9844 29.3203 37 28.8953 37 25.5C37 22.1047 36.9844 21.6797 36.925 20.3453C36.8625 19.0156 36.6516 18.1062 36.3438 17.3125C36.0296 16.4785 35.5374 15.7229 34.9016 15.0984C34.2775 14.462 33.5219 13.9698 32.6875 13.6562C31.8906 13.3469 30.9813 13.1359 29.6516 13.075C28.3172 13.0156 27.8938 13 24.4969 13H24.5016H24.5ZM23.3797 15.2531H24.5016C27.8391 15.2531 28.2344 15.2641 29.5516 15.325C30.7703 15.3797 31.4328 15.5844 31.8734 15.7547C32.4562 15.9813 32.8734 16.2531 33.3109 16.6906C33.7484 17.1281 34.0188 17.5438 34.2453 18.1281C34.4172 18.5672 34.6203 19.2297 34.675 20.4484C34.7359 21.7656 34.7484 22.1609 34.7484 25.4969C34.7484 28.8328 34.7359 29.2297 34.675 30.5469C34.6203 31.7656 34.4156 32.4266 34.2453 32.8672C34.0449 33.4099 33.725 33.9007 33.3094 34.3031C32.8719 34.7406 32.4563 35.0109 31.8719 35.2375C31.4344 35.4094 30.7719 35.6125 29.5516 35.6688C28.2344 35.7281 27.8391 35.7422 24.5016 35.7422C21.1641 35.7422 20.7672 35.7281 19.45 35.6688C18.2313 35.6125 17.5703 35.4094 17.1297 35.2375C16.5867 35.0374 16.0955 34.7181 15.6922 34.3031C15.2762 33.9001 14.9558 33.4088 14.7547 32.8656C14.5844 32.4266 14.3797 31.7641 14.325 30.5453C14.2656 29.2281 14.2531 28.8328 14.2531 25.4937C14.2531 22.1562 14.2656 21.7625 14.325 20.4453C14.3813 19.2266 14.5844 18.5641 14.7563 18.1234C14.9828 17.5406 15.2547 17.1234 15.6922 16.6859C16.1297 16.2484 16.5453 15.9781 17.1297 15.7516C17.5703 15.5797 18.2313 15.3766 19.45 15.3203C20.6031 15.2672 21.05 15.2516 23.3797 15.25V15.2531ZM31.1734 17.3281C30.9765 17.3281 30.7814 17.3669 30.5994 17.4423C30.4174 17.5177 30.2521 17.6282 30.1128 17.7675C29.9735 17.9068 29.863 18.0721 29.7876 18.2541C29.7122 18.4361 29.6734 18.6311 29.6734 18.8281C29.6734 19.0251 29.7122 19.2202 29.7876 19.4021C29.863 19.5841 29.9735 19.7495 30.1128 19.8888C30.2521 20.0281 30.4174 20.1386 30.5994 20.2139C30.7814 20.2893 30.9765 20.3281 31.1734 20.3281C31.5713 20.3281 31.9528 20.1701 32.2341 19.8888C32.5154 19.6075 32.6734 19.2259 32.6734 18.8281C32.6734 18.4303 32.5154 18.0488 32.2341 17.7675C31.9528 17.4862 31.5713 17.3281 31.1734 17.3281ZM24.5016 19.0812C23.6501 19.068 22.8045 19.2242 22.014 19.5408C21.2235 19.8575 20.5039 20.3282 19.8971 20.9257C19.2903 21.5231 18.8084 22.2353 18.4794 23.0207C18.1505 23.8062 17.9811 24.6492 17.9811 25.5008C17.9811 26.3523 18.1505 27.1954 18.4794 27.9808C18.8084 28.7663 19.2903 29.4785 19.8971 30.0759C20.5039 30.6733 21.2235 31.1441 22.014 31.4607C22.8045 31.7774 23.6501 31.9336 24.5016 31.9203C26.1868 31.894 27.7941 31.2061 28.9765 30.0051C30.159 28.804 30.8217 27.1862 30.8217 25.5008C30.8217 23.8154 30.159 22.1975 28.9765 20.9965C27.7941 19.7954 26.1868 19.1075 24.5016 19.0812ZM24.5016 21.3328C25.6068 21.3328 26.6667 21.7719 27.4482 22.5534C28.2297 23.3349 28.6688 24.3948 28.6688 25.5C28.6688 26.6052 28.2297 27.6651 27.4482 28.4466C26.6667 29.2281 25.6068 29.6672 24.5016 29.6672C23.3964 29.6672 22.3364 29.2281 21.5549 28.4466C20.7734 27.6651 20.3344 26.6052 20.3344 25.5C20.3344 24.3948 20.7734 23.3349 21.5549 22.5534C22.3364 21.7719 23.3964 21.3328 24.5016 21.3328Z" fill="#222B56"/>
</g>
<defs>
<clipPath id="clip0_103_509">
<rect width="25" height="25" fill="white" transform="translate(12 13)"/>
</clipPath>
</defs>
</svg>
