<svg width="23" height="23" viewBox="0 0 23 23" fill="none" xmlns="http://www.w3.org/2000/svg">
<g clip-path="url(#clip0_171_381)">
<path d="M7.24768 21.2369C15.7798 21.2369 20.4472 14.1673 20.4472 8.04727C20.4472 7.84944 20.4472 7.64879 20.4387 7.45096C21.3474 6.79315 22.1317 5.97875 22.7547 5.04591C21.9059 5.42016 21.0064 5.66682 20.0855 5.77788C21.0556 5.19801 21.7822 4.28563 22.1302 3.21032C21.2187 3.75029 20.2211 4.12935 19.1811 4.33089C18.4819 3.58623 17.5566 3.09292 16.5486 2.92737C15.5407 2.76181 14.5062 2.93325 13.6056 3.41513C12.7049 3.89701 11.9883 4.66244 11.5667 5.59285C11.1451 6.52326 11.042 7.56673 11.2735 8.56163C9.4291 8.46915 7.62471 7.99 5.97738 7.15526C4.33006 6.32052 2.87659 5.14884 1.71125 3.7162C1.11966 4.73797 0.939114 5.9466 1.20629 7.09665C1.47346 8.2467 2.16832 9.25196 3.14976 9.90829C2.41431 9.88331 1.69503 9.68582 1.04994 9.33176V9.39535C1.0512 10.4657 1.42201 11.5028 2.09967 12.3314C2.77733 13.1599 3.72029 13.7291 4.76915 13.9426C4.37103 14.0523 3.95978 14.107 3.54684 14.1051C3.25572 14.106 2.96519 14.079 2.67921 14.0246C2.97565 14.946 3.55288 15.7516 4.33003 16.3286C5.10718 16.9055 6.04534 17.225 7.01311 17.2421C5.36907 18.5334 3.33827 19.2337 1.24777 19.2303C0.879407 19.2319 0.511305 19.2107 0.145569 19.1668C2.26732 20.5194 4.73141 21.2377 7.24768 21.2369Z" fill="black"/>
</g>
<defs>
<clipPath id="clip0_171_381">
<rect width="22.6092" height="22.6092" fill="white" transform="translate(0.145569 0.0407715)"/>
</clipPath>
</defs>
</svg>
